<?xml version="1.0" encoding="UTF-8"?>
<!DOCTYPE svg PUBLIC "-//W3C//DTD SVG 1.1//EN" "http://www.w3.org/Graphics/SVG/1.1/DTD/svg11.dtd">
<svg xmlns="http://www.w3.org/2000/svg" version="1.1" width="500px" height="500px" style="shape-rendering:geometricPrecision; text-rendering:geometricPrecision; image-rendering:optimizeQuality; fill-rule:evenodd; clip-rule:evenodd" xmlns:xlink="http://www.w3.org/1999/xlink">
<g><path style="opacity:0.952" fill="#fefffe" d="M 242.5,99.5 C 270.5,99.5 298.5,99.5 326.5,99.5C 326.667,127.169 326.5,154.835 326,182.5C 306.667,201.833 287.333,221.167 268,240.5C 240.32,212.986 212.82,185.32 185.5,157.5C 204.521,138.146 223.521,118.813 242.5,99.5 Z M 249.5,116.5 C 269.167,116.5 288.833,116.5 308.5,116.5C 308.666,123.841 308.5,131.174 308,138.5C 299.833,146.667 291.667,154.833 283.5,163C 291.827,163.5 300.16,163.666 308.5,163.5C 308.666,167.846 308.499,172.179 308,176.5C 294.667,189.833 281.333,203.167 268,216.5C 248.319,196.986 228.819,177.32 209.5,157.5C 222.855,143.813 236.188,130.146 249.5,116.5 Z"/></g>
<g><path style="opacity:0.926" fill="#fefffe" d="M 172.5,168.5 C 222.917,217.416 272.917,266.916 322.5,317C 295.502,317.5 268.502,317.667 241.5,317.5C 241.667,344.835 241.5,372.169 241,399.5C 218.333,376.833 195.667,354.167 173,331.5C 172.5,277.168 172.333,222.834 172.5,168.5 Z M 190.5,210.5 C 220.632,240.132 250.632,269.965 280.5,300C 261.833,300.333 243.167,300.667 224.5,301C 223.673,319.76 223.173,338.593 223,357.5C 212.333,346.833 201.667,336.167 191,325.5C 190.5,287.168 190.333,248.835 190.5,210.5 Z"/></g>
</svg>
