<?xml version="1.0" encoding="UTF-8"?>
<!DOCTYPE svg PUBLIC "-//W3C//DTD SVG 1.1//EN" "http://www.w3.org/Graphics/SVG/1.1/DTD/svg11.dtd">
<svg xmlns="http://www.w3.org/2000/svg" version="1.1" width="500px" height="500px" style="shape-rendering:geometricPrecision; text-rendering:geometricPrecision; image-rendering:optimizeQuality; fill-rule:evenodd; clip-rule:evenodd" xmlns:xlink="http://www.w3.org/1999/xlink">
<g><path style="opacity:1" fill="#fefefe" d="M -0.5,-0.5 C 166.167,-0.5 332.833,-0.5 499.5,-0.5C 499.5,166.167 499.5,332.833 499.5,499.5C 332.833,499.5 166.167,499.5 -0.5,499.5C -0.5,332.833 -0.5,166.167 -0.5,-0.5 Z"/></g>
<g><path style="opacity:1" fill="#070707" d="M 242.5,99.5 C 270.167,99.5 297.833,99.5 325.5,99.5C 325.667,127.169 325.5,154.835 325,182.5C 305.986,201.681 286.82,220.681 267.5,239.5C 239.833,212.5 212.5,185.167 185.5,157.5C 204.521,138.146 223.521,118.813 242.5,99.5 Z"/></g>
<g><path style="opacity:1" fill="#fdfdfd" d="M 249.5,116.5 C 269.5,116.5 289.5,116.5 309.5,116.5C 309.666,123.841 309.5,131.174 309,138.5C 300.833,146.667 292.667,154.833 284.5,163C 292.827,163.5 301.16,163.666 309.5,163.5C 309.826,167.884 309.492,172.217 308.5,176.5C 295.014,189.486 281.681,202.653 268.5,216C 267.833,216.667 267.167,216.667 266.5,216C 246.986,196.653 227.653,177.153 208.5,157.5C 222.494,144.173 236.161,130.506 249.5,116.5 Z"/></g>
<g><path style="opacity:1" fill="#020202" d="M 241.5,317.5 C 240.833,344.167 240.167,370.833 239.5,397.5C 217.535,376.035 195.701,354.368 174,332.5C 173.333,278.167 173.333,223.833 174,169.5C 223.167,218.667 272.333,267.833 321.5,317C 294.835,317.5 268.169,317.667 241.5,317.5 Z"/></g>
<g><path style="opacity:1" fill="#fcfcfc" d="M 189.5,208.5 C 220.632,239.132 251.632,269.965 282.5,301C 263.17,301.5 243.836,301.667 224.5,301.5C 224.667,320.503 224.5,339.503 224,358.5C 212.971,347.137 201.637,336.137 190,325.5C 189.5,286.501 189.333,247.501 189.5,208.5 Z"/></g>
<g><path style="opacity:1" fill="#c2c2c2" d="M 241.5,317.5 C 241.833,344.508 241.5,371.508 240.5,398.5C 239.893,398.376 239.56,398.043 239.5,397.5C 240.167,370.833 240.833,344.167 241.5,317.5 Z"/></g>
</svg>
